# xmcd
#
# Track frame offsets:
#	150
#	21790
#	42027
#	54977
#	67160
#	88585
#	105957
#	133887
#	145562
#
# Disc length: 2431 seconds
# Revision: 3
# Processed by: cddbd v1.5.2PL0 Copyright (c) Steve Scherf et al.
# Submitted via: dBpowerAMP V12.0
#
DISCID=71097d09
DTITLE=New Grass Revival - Commonwealth
DYEAR=1981
DGENRE=Bluegrass
TTITLE0=Reach
TTITLE1=Steam Powered Aereo Plane
TTITLE2=One Day I'll Walk
TTITLE3=Nothing Wasted, Nothing Gained
TTITLE4=Pack of Fools
TTITLE5=Nothing Without You
TTITLE6=Deeper and Deeper
TTITLE7=Wicked Path of Sin
TTITLE8=Sapporo
EXTD=
EXTT0=
EXTT1=
EXTT2=
EXTT3=
EXTT4=
EXTT5=
EXTT6=
EXTT7=
EXTT8=
PLAYORDER=
